TITLE ""
FILE "1Q_t_0539-0548.mp3" MP3
  TRACK 01 AUDIO
    TITLE "1Q_t_0539-0548_01"
    INDEX 01 00:00:00
  TRACK 02 AUDIO
    TITLE "1Q_t_0539-0548_02"
    INDEX 01 00:01:39
  TRACK 03 AUDIO
    TITLE "1Q_t_0539-0548_03"
    INDEX 01 00:01:47
  TRACK 04 AUDIO
    TITLE "1Q_t_0539-0548_04"
    INDEX 01 00:04:45
  TRACK 05 AUDIO
    TITLE "1Q_t_0539-0548_05"
    INDEX 01 00:04:53
  TRACK 06 AUDIO
    TITLE "1Q_t_0539-0548_06"
    INDEX 01 00:11:28
  TRACK 07 AUDIO
    TITLE "1Q_t_0539-0548_07"
    INDEX 01 00:11:73
  TRACK 08 AUDIO
    TITLE "1Q_t_0539-0548_08"
    INDEX 01 00:13:21
  TRACK 09 AUDIO
    TITLE "1Q_t_0539-0548_09"
    INDEX 01 00:13:31
  TRACK 10 AUDIO
    TITLE "1Q_t_0539-0548_10"
    INDEX 01 00:16:49
  TRACK 11 AUDIO
    TITLE "1Q_t_0539-0548_11"
    INDEX 01 00:16:56
  TRACK 12 AUDIO
    TITLE "1Q_t_0539-0548_12"
    INDEX 01 00:21:38
  TRACK 13 AUDIO
    TITLE "1Q_t_0539-0548_13"
    INDEX 01 00:22:10
  TRACK 14 AUDIO
    TITLE "1Q_t_0539-0548_14"
    INDEX 01 00:23:07
  TRACK 15 AUDIO
    TITLE "1Q_t_0539-0548_15"
    INDEX 01 00:23:19
  TRACK 16 AUDIO
    TITLE "1Q_t_0539-0548_16"
    INDEX 01 00:24:28
  TRACK 17 AUDIO
    TITLE "1Q_t_0539-0548_17"
    INDEX 01 00:24:36
  TRACK 18 AUDIO
    TITLE "1Q_t_0539-0548_18"
    INDEX 01 00:29:35
  TRACK 19 AUDIO
    TITLE "1Q_t_0539-0548_19"
    INDEX 01 00:30:07
  TRACK 20 AUDIO
    TITLE "1Q_t_0539-0548_20"
    INDEX 01 00:31:15
  TRACK 21 AUDIO
    TITLE "1Q_t_0539-0548_21"
    INDEX 01 00:31:23
  TRACK 22 AUDIO
    TITLE "1Q_t_0539-0548_22"
    INDEX 01 00:34:44
  TRACK 23 AUDIO
    TITLE "1Q_t_0539-0548_23"
    INDEX 01 00:34:54
  TRACK 24 AUDIO
    TITLE "1Q_t_0539-0548_24"
    INDEX 01 00:41:31
  TRACK 25 AUDIO
    TITLE "1Q_t_0539-0548_25"
    INDEX 01 00:42:01
  TRACK 26 AUDIO
    TITLE "1Q_t_0539-0548_26"
    INDEX 01 00:43:10
  TRACK 27 AUDIO
    TITLE "1Q_t_0539-0548_27"
    INDEX 01 00:43:18
  TRACK 28 AUDIO
    TITLE "1Q_t_0539-0548_28"
    INDEX 01 00:45:23
  TRACK 29 AUDIO
    TITLE "1Q_t_0539-0548_29"
    INDEX 01 00:45:31
  TRACK 30 AUDIO
    TITLE "1Q_t_0539-0548_30"
    INDEX 01 00:51:31
  TRACK 31 AUDIO
    TITLE "1Q_t_0539-0548_31"
    INDEX 01 00:52:01
  TRACK 32 AUDIO
    TITLE "1Q_t_0539-0548_32"
    INDEX 01 00:53:32
  TRACK 33 AUDIO
    TITLE "1Q_t_0539-0548_33"
    INDEX 01 00:53:42
  TRACK 34 AUDIO
    TITLE "1Q_t_0539-0548_34"
    INDEX 01 00:56:40
  TRACK 35 AUDIO
    TITLE "1Q_t_0539-0548_35"
    INDEX 01 00:56:48
  TRACK 36 AUDIO
    TITLE "1Q_t_0539-0548_36"
    INDEX 01 01:03:07
  TRACK 37 AUDIO
    TITLE "1Q_t_0539-0548_37"
    INDEX 01 01:03:56
  TRACK 38 AUDIO
    TITLE "1Q_t_0539-0548_38"
    INDEX 01 01:04:53
  TRACK 39 AUDIO
    TITLE "1Q_t_0539-0548_39"
    INDEX 01 01:04:63
  TRACK 40 AUDIO
    TITLE "1Q_t_0539-0548_40"
    INDEX 01 01:08:04
  TRACK 41 AUDIO
    TITLE "1Q_t_0539-0548_41"
    INDEX 01 01:08:12
  TRACK 42 AUDIO
    TITLE "1Q_t_0539-0548_42"
    INDEX 01 01:13:74
  TRACK 43 AUDIO
    TITLE "1Q_t_0539-0548_43"
    INDEX 01 01:14:46
  TRACK 44 AUDIO
    TITLE "1Q_t_0539-0548_44"
    INDEX 01 01:15:65
  TRACK 45 AUDIO
    TITLE "1Q_t_0539-0548_45"
    INDEX 01 01:16:00
  TRACK 46 AUDIO
    TITLE "1Q_t_0539-0548_46"
    INDEX 01 01:19:37
  TRACK 47 AUDIO
    TITLE "1Q_t_0539-0548_47"
    INDEX 01 01:19:45
  TRACK 48 AUDIO
    TITLE "1Q_t_0539-0548_48"
    INDEX 01 01:25:26
  TRACK 49 AUDIO
    TITLE "1Q_t_0539-0548_49"
    INDEX 01 01:26:00
  TRACK 50 AUDIO
    TITLE "1Q_t_0539-0548_50"
    INDEX 01 01:27:05
  TRACK 51 AUDIO
    TITLE "1Q_t_0539-0548_51"
    INDEX 01 01:27:17
  TRACK 52 AUDIO
    TITLE "1Q_t_0539-0548_52"
    INDEX 01 01:30:25
  TRACK 53 AUDIO
    TITLE "1Q_t_0539-0548_53"
    INDEX 01 01:30:33
  TRACK 54 AUDIO
    TITLE "1Q_t_0539-0548_54"
    INDEX 01 01:36:44
  TRACK 55 AUDIO
    TITLE "1Q_t_0539-0548_55"
    INDEX 01 01:37:18
  TRACK 56 AUDIO
    TITLE "1Q_t_0539-0548_56"
    INDEX 01 01:38:17
  TRACK 57 AUDIO
    TITLE "1Q_t_0539-0548_57"
    INDEX 01 01:38:27
  TRACK 58 AUDIO
    TITLE "1Q_t_0539-0548_58"
    INDEX 01 01:40:37
  TRACK 59 AUDIO
    TITLE "1Q_t_0539-0548_59"
    INDEX 01 01:40:41
  TRACK 60 AUDIO
    TITLE "1Q_t_0539-0548_60"
    INDEX 01 01:46:28
